<svg width="292" height="61" viewBox="0 0 292 61" fill="none" xmlns="http://www.w3.org/2000/svg">
<g filter="url(#filter0_d_182_537)">
<mask id="path-1-inside-1_182_537" fill="white">
<path fill-rule="evenodd" clip-rule="evenodd" d="M2.97754 5.05978C2.97754 2.85065 4.76839 1.05978 6.97753 1.05978H270.264C270.265 1.05978 270.265 1.05991 270.265 1.06013L288.918 26.707C289.938 28.1096 289.938 30.0099 288.918 31.4126L270.265 57.0594C270.265 57.0597 270.265 57.0598 270.264 57.0598H6.97754C4.7684 57.0598 2.97754 55.2689 2.97754 53.0598V5.05978Z"/>
</mask>
<path fill-rule="evenodd" clip-rule="evenodd" d="M2.97754 5.05978C2.97754 2.85065 4.76839 1.05978 6.97753 1.05978H270.264C270.265 1.05978 270.265 1.05991 270.265 1.06013L288.918 26.707C289.938 28.1096 289.938 30.0099 288.918 31.4126L270.265 57.0594C270.265 57.0597 270.265 57.0598 270.264 57.0598H6.97754C4.7684 57.0598 2.97754 55.2689 2.97754 53.0598V5.05978Z" fill="#21527A" fill-opacity="0.01"/>
<path d="M288.918 26.707L288.109 27.2952V27.2952L288.918 26.707ZM288.918 31.4126L288.109 30.8244V30.8244L288.918 31.4126ZM270.265 57.0594L271.074 57.6476L270.265 57.0594ZM270.265 1.06013L271.074 0.471946L270.265 1.06013ZM270.264 0.0597839H6.97753V2.05978H270.264V0.0597839ZM269.456 1.64831L288.109 27.2952L289.727 26.1188L271.074 0.471946L269.456 1.64831ZM288.109 27.2952C288.874 28.3472 288.874 29.7724 288.109 30.8244L289.727 32.0008C291.002 30.2475 291.002 27.8721 289.727 26.1188L288.109 27.2952ZM288.109 30.8244L269.456 56.4713L271.074 57.6476L289.727 32.0007L288.109 30.8244ZM6.97754 58.0598H270.264V56.0598H6.97754V58.0598ZM1.97754 5.05978V53.0598H3.97754V5.05978H1.97754ZM269.456 56.4713C269.644 56.2127 269.945 56.0598 270.264 56.0598V58.0598C270.584 58.0598 270.885 57.9066 271.074 57.6476L269.456 56.4713ZM6.97754 56.0598C5.32069 56.0598 3.97754 54.7166 3.97754 53.0598H1.97754C1.97754 55.8212 4.21611 58.0598 6.97754 58.0598V56.0598ZM270.264 2.05978C269.945 2.05978 269.644 1.90683 269.456 1.64831L271.074 0.471946C270.885 0.212991 270.584 0.0597839 270.264 0.0597839V2.05978ZM6.97753 0.0597839C4.21611 0.0597839 1.97754 2.29836 1.97754 5.05978H3.97754C3.97754 3.40293 5.32068 2.05978 6.97753 2.05978V0.0597839Z" fill="#C1C9D2" mask="url(#path-1-inside-1_182_537)"/>
</g>
<defs>
<filter id="filter0_d_182_537" x="0.977539" y="0.0597839" width="290.706" height="60" filterUnits="userSpaceOnUse" color-interpolation-filters="sRGB">
<feFlood flood-opacity="0" result="BackgroundImageFix"/>
<feColorMatrix in="SourceAlpha" type="matrix" values="0 0 0 0 0 0 0 0 0 0 0 0 0 0 0 0 0 0 127 0" result="hardAlpha"/>
<feOffset dy="1"/>
<feGaussianBlur stdDeviation="1"/>
<feColorMatrix type="matrix" values="0 0 0 0 0.215686 0 0 0 0 0.254902 0 0 0 0 0.317647 0 0 0 0.08 0"/>
<feBlend mode="normal" in2="BackgroundImageFix" result="effect1_dropShadow_182_537"/>
<feBlend mode="normal" in="SourceGraphic" in2="effect1_dropShadow_182_537" result="shape"/>
</filter>
</defs>
</svg>
