<svg width="192" height="40" viewBox="0 0 192 40" fill="none" xmlns="http://www.w3.org/2000/svg">
<g clip-path="url(#clip0_728_923)">
<path d="M0 0.967272C5.13593 3.53485 10.2641 6.11508 15.4104 8.6624C17.1271 9.5216 18.6648 10.6897 19.9436 12.1061C20.2192 12.4049 20.5952 12.7113 20.2424 13.1898C19.4053 14.3192 19.0601 15.6764 18.4059 17.0488C16.9712 14.2964 14.6299 12.7265 11.9667 11.4781C10.4753 10.7869 9.00719 10.05 7.54163 9.30556L5.35228 8.19396C4.87063 7.94074 4.05157 7.37355 4.10308 8.40159C4.14429 9.19415 4.15202 9.9791 4.14944 10.7742C4.14944 12.1247 4.14944 13.4701 4.14944 14.8104C4.14944 17.5012 4.14944 20.1937 4.14944 22.8879V24.9136C4.14944 26.0252 4.55897 27.0406 5.58153 27.5622C7.18361 28.3826 8.78913 29.1963 10.3981 30.0032C12.007 30.8101 13.6211 31.6178 15.2404 32.4264L17.3009 33.457C17.6615 33.6368 18.017 33.8317 18.375 34.0166C18.5501 34.1077 18.7253 34.1989 18.9056 34.2825C19.0859 34.366 19.4053 34.6294 19.5057 34.323C19.5851 33.962 19.6016 33.5904 19.5547 33.224C19.5547 32.8645 19.5547 32.5074 19.5547 32.1479C19.5547 31.2515 19.5547 30.3577 19.5547 29.4613C19.5547 27.6685 19.5547 25.8783 19.5547 24.0881C19.5547 23.2897 19.5632 22.492 19.5804 21.6953C19.668 16.5196 21.8342 12.2074 26.3519 9.57903C31.7326 6.44679 37.4403 3.85136 43.2201 0.916626V2.3017C43.2201 9.7107 43.2201 17.1206 43.2201 24.5312C43.2201 27.7698 41.8112 30.1222 38.826 31.5908C34.5195 33.7102 30.2361 35.8726 25.7338 38.1186C25.7338 36.6424 25.7518 35.3333 25.7338 34.0242C25.7338 33.3861 26.2489 33.3177 26.6378 33.1202C30.1717 31.3427 33.709 29.5744 37.2497 27.8154C38.3933 27.2507 39.0784 26.3518 39.0862 25.1491C39.1325 19.3758 39.1068 13.6026 39.1068 7.83946C38.6174 7.66474 38.3341 7.98632 38.0044 8.14584C35.2587 9.50306 32.5078 10.8502 29.7905 12.258C25.7647 14.3445 23.6964 17.6236 23.6887 22.1004C23.6887 27.4584 23.6887 32.8164 23.6887 38.1769C23.6887 39.4556 22.1278 40.4127 20.9455 39.8253C15.1966 36.9555 9.45452 34.0807 3.7193 31.2009C1.23376 29.95 0.00771451 27.1798 0.0515013 24.5388C0.0515013 23.9539 0.0515013 23.3639 0.0515013 22.7663V3.39051C-1.25774e-05 3.12717 0.164844 1.05083 0 0.967272Z" fill="#E36928"/>
<path d="M119.618 32.196C119.618 30.8557 119.618 29.5162 119.618 28.1775C119.618 26.524 120.975 25.6454 122.364 26.5823C123.064 27.0532 123.443 26.9241 124.027 26.6025C125.872 25.5897 127.633 25.6808 129.215 27.1216C129.789 27.6483 130.145 27.39 130.629 27.0026C132.571 25.4403 135.332 25.5947 136.842 27.3875C137.571 28.2748 137.965 29.3838 137.954 30.5248C137.98 32.6163 137.918 34.7104 137.983 36.8019C138.026 38.1794 137.12 38.068 136.18 38.111C135.149 38.1617 134.699 37.7768 134.729 36.7285C134.784 34.9307 134.76 33.1303 134.75 31.33C134.75 29.8715 133.836 28.8587 132.602 28.884C131.466 28.9093 130.541 29.9703 130.523 31.2996C130.51 33.143 130.487 34.9839 130.544 36.8247C130.588 38.2047 129.668 38.0908 128.741 38.111C127.814 38.1313 127.154 38.0604 127.196 36.8728C127.268 34.951 127.229 33.024 127.216 31.0971C127.216 29.8664 126.369 28.9321 125.274 28.8789C124.087 28.8232 123.113 29.7094 123.08 31.0135C123.031 32.8949 123.02 34.7813 123.08 36.6627C123.129 37.911 122.474 38.1389 121.408 38.111C120.411 38.0857 119.494 38.149 119.574 36.7158C119.69 35.2346 119.618 33.7153 119.618 32.196Z" fill="#495057"/>
<path d="M118.003 8.80927C118.003 6.38349 118.047 3.95771 117.982 1.53446C117.951 0.448181 118.407 0.15192 119.427 0.194966C120.447 0.238013 121.387 0.164579 121.333 1.56231C121.284 2.77014 121.302 3.98303 121.223 5.18832C121.168 5.96568 121.48 6.09736 122.124 5.83148C125.988 4.20332 129.078 6.72532 128.821 10.3463C128.697 12.1795 128.762 14.028 128.821 15.8663C128.854 17.0007 128.512 17.6135 127.226 17.5476C125.941 17.4818 125.493 17.0969 125.485 15.7751C125.485 13.9773 125.485 12.1795 125.485 10.3817C125.485 9.05235 124.581 8.08254 123.368 8.05215C122.392 8.02937 121.362 9.19414 121.346 10.4096C121.323 12.2099 121.346 14.0077 121.346 15.8055C121.346 17.0969 120.87 17.4869 119.574 17.5502C118.278 17.6135 117.987 16.945 118.011 15.8384C118.034 13.4962 118.003 11.1515 118.003 8.80927Z" fill="#A2BDD0"/>
<path d="M138.583 11.4325C138.583 10.093 138.583 8.75355 138.583 7.41406C138.583 5.59599 139.232 5.09716 140.965 5.67195C141.364 5.83324 141.792 5.91347 142.223 5.90781C142.654 5.90215 143.08 5.81072 143.474 5.63903C146.014 4.67429 148.569 5.59346 149.31 8.55098C149.934 11.0527 149.609 13.633 149.568 16.1752C149.545 17.3451 148.538 17.6008 147.507 17.5375C146.526 17.4793 146.047 16.945 146.044 15.9954C146.044 14.1115 146.044 12.2276 146.044 10.3437C146.044 8.82445 145.529 8.25473 144.167 8.24713C142.742 8.24713 141.959 8.96372 141.939 10.3893C141.91 12.2707 141.903 14.1571 141.939 16.0385C141.962 17.0969 141.542 17.5375 140.432 17.5578C139.322 17.578 138.59 17.3045 138.593 16.0714C138.59 14.5251 138.586 12.9788 138.583 11.4325Z" fill="#A7C0D2"/>
<path d="M154.042 32.2593C154.042 30.9088 154.042 29.5685 154.042 28.2383C154.042 26.4227 155.33 25.6935 156.973 26.6734C157.524 27.0001 157.818 26.9545 158.32 26.6582C161.532 24.7642 164.759 26.8962 164.95 30.4868C165.063 32.6163 164.95 34.7585 164.989 36.8931C165.014 38.1971 164.128 38.111 163.247 38.1136C162.367 38.1161 161.47 38.1794 161.488 36.8981C161.517 35.0548 161.511 33.2114 161.488 31.3705C161.488 29.6537 160.847 28.8789 159.5 28.889C158.153 28.8992 157.352 29.8158 157.347 31.4211C157.347 33.224 157.29 35.0269 157.375 36.8222C157.432 38.0882 156.734 38.1439 155.763 38.1313C154.791 38.1186 153.96 38.1136 154.011 36.7817C154.091 35.275 154.039 33.7659 154.042 32.2593Z" fill="#495057"/>
<path d="M75.5863 11.6326C75.5863 13.0126 75.5863 14.3926 75.5863 15.7751C75.5863 16.3499 75.7614 17.1146 75.0866 17.3299C74.4118 17.5451 73.4923 17.7426 72.8252 17.2109C72.2791 16.7753 71.9468 16.8817 71.3725 17.1779C68.8122 18.4921 65.044 17.3527 64.7246 13.8457C64.5185 11.5845 64.619 9.33847 64.5623 7.08741C64.534 5.93023 65.0775 5.54535 66.3653 5.49724C67.5785 5.44913 67.9288 6.02393 67.9107 7.10768C67.8644 8.90802 67.8876 10.7058 67.9107 12.5062C67.9107 13.795 68.7607 14.6256 70.0408 14.6509C71.321 14.6762 72.2765 13.8077 72.2894 12.4808C72.3049 10.7236 72.2894 8.96625 72.2894 7.20896C72.2894 5.9429 72.7839 5.54535 74.0924 5.49724C75.3081 5.45166 75.6558 6.03405 75.6198 7.11527C75.5502 8.61935 75.5863 10.126 75.5863 11.6326Z" fill="#A2BDD0"/>
<path d="M173.45 38.6605C170.75 38.3491 168.597 37.1818 167.611 34.5863C166.738 32.2796 167.018 30.0108 168.729 28.1244C170.508 26.1594 172.731 25.6074 175.353 26.3899C176.028 26.578 176.657 26.8996 177.2 27.335C177.744 27.7704 178.192 28.3105 178.516 28.922C178.933 29.6664 178.805 30.0944 177.87 30.3931C176.816 30.7299 176.1 30.8616 175.294 29.7905C174.351 28.5244 172.96 28.5548 171.688 29.5373C170.596 30.3805 170.086 32.2492 170.588 33.5456C170.84 34.192 171.296 34.7423 171.889 35.1162C172.481 35.4902 173.18 35.6683 173.883 35.6245C174.771 35.5916 175.266 35.0523 175.758 34.4648C176.25 33.8773 177.818 33.7989 178.444 34.4192C179.15 35.113 178.64 35.7309 178.148 36.2702C176.904 37.6401 175.51 38.7643 173.45 38.6605Z" fill="#495057"/>
<path d="M88.2382 33.5988C88.2382 32.7632 88.2382 31.925 88.2382 31.0894C88.2382 30.1044 88.4803 29.0637 86.8627 28.9523C86.1364 28.8966 86.4171 27.9901 86.3837 27.433C86.3553 26.9494 86.4377 26.4202 87.0662 26.4202C88.1944 26.4202 88.197 25.7213 88.2613 24.9009C88.4674 22.3435 90.291 20.6545 92.7611 20.6647C93.7141 20.6647 94.2911 21.0394 94.322 22.0725C94.3477 22.9613 94.3039 23.6197 93.0856 23.6222C92.0141 23.6222 91.7025 24.4071 91.6973 25.3618C91.6922 26.3164 92.3 26.4404 93.0624 26.3746C94.0335 26.3012 94.3194 26.8 94.3297 27.6711C94.3297 28.6054 94.0283 29.1397 92.9955 29.0257C91.9626 28.9118 91.6741 29.4537 91.6896 30.3728C91.7256 32.4239 91.705 34.4749 91.705 36.5234C91.705 37.9819 91.5891 38.0832 89.9433 38.0832C88.367 38.0832 88.233 37.954 88.233 36.4575V33.5709L88.2382 33.5988Z" fill="#495057"/>
<path d="M107.466 13.7823C108.099 13.6785 108.578 13.9216 108.978 14.4508C109.139 14.6994 109.36 14.9056 109.621 15.0516C109.881 15.1976 110.174 15.2791 110.474 15.289C111.203 15.289 111.968 15.2484 112.043 14.39C112.117 13.5317 111.502 13.1544 110.685 13.0303C109.457 12.8429 108.236 12.5467 107.301 11.7161C104.939 9.61952 105.882 6.79114 108.676 5.61876C110.662 4.78569 112.797 5.22882 114.42 6.88483C114.935 7.39125 115.247 8.02681 114.678 8.51804C114.108 9.00928 113.315 9.67016 112.414 8.90799C112.123 8.65478 111.873 8.36865 111.587 8.11797C111.34 7.88009 111.015 7.73625 110.67 7.71213C110.325 7.68801 109.983 7.78518 109.704 7.9863C109.364 8.19647 108.908 8.50792 109.081 8.98143C109.338 9.6651 109.882 9.93097 110.654 10.0297C112.56 10.2703 114.26 10.8071 115.113 12.8151C115.989 14.8939 114.415 16.7069 112.815 17.3729C110.773 18.2085 108.007 17.897 106.438 15.884C106.101 15.451 105.75 14.98 106.028 14.3951C106.307 13.8102 106.853 13.7469 107.466 13.7823Z" fill="#A9C2D3"/>
<path d="M95.3419 0.210144C97.0599 0.210144 97.0985 0.349413 96.9826 2.12697C96.8667 3.90452 96.9054 5.64409 96.9517 7.40138C97.0213 10.1133 96.7482 12.8328 97.1346 15.5447C97.3072 16.7601 96.5035 17.5274 95.2724 17.5324C94.1494 17.5324 93.5956 16.9323 93.5956 15.6637C93.5956 11.0569 93.5956 6.451 93.5956 1.8459C93.6033 0.41272 93.8171 0.215208 95.3419 0.210144Z" fill="#A4BED1"/>
<path d="M110.088 32.1681C110.088 30.8295 110.088 29.4908 110.088 28.1522C110.088 26.5164 111.502 25.6428 112.851 26.6126C113.624 27.1672 114.075 27.1064 114.709 26.6303C114.861 26.5522 115.027 26.5024 115.198 26.4835C115.868 26.3214 116.62 25.7238 117.184 26.5063C117.748 27.2887 117.506 28.2079 117.302 29.0384C117.174 29.5727 116.579 29.5094 116.107 29.5448C114.405 29.6689 113.465 30.5931 113.416 32.2719C113.372 33.8165 113.359 35.3662 113.416 36.9108C113.457 37.9996 112.87 38.1768 111.971 38.1085C111.072 38.0401 110.054 38.3617 110.075 36.926C110.088 35.3459 110.088 33.7558 110.088 32.1681Z" fill="#495057"/>
<path d="M77.8735 32.196C77.8735 30.773 77.8581 29.3499 77.8735 27.9294C77.8735 27.3824 77.616 26.5747 78.4402 26.4683C79.2644 26.362 80.2432 25.9999 80.8433 26.7747C81.3198 27.3799 81.5593 27.428 82.1028 26.9039C82.6463 26.3797 83.4164 26.3443 84.117 26.1797C84.5472 26.0759 84.8537 26.3063 85.0752 26.6532C85.2527 26.9229 85.3572 27.2328 85.3788 27.5534C85.4003 27.8739 85.3383 28.1946 85.1984 28.485C85.0586 28.7754 84.8457 29.0259 84.5798 29.2127C84.3139 29.3995 84.0039 29.5165 83.6791 29.5525C82.1775 29.7019 81.2503 30.7147 81.1962 32.3809C81.1472 33.8014 81.1163 35.227 81.1962 36.645C81.2786 37.9743 80.5625 38.1288 79.455 38.1389C78.3475 38.149 77.7035 37.9743 77.8426 36.7108C77.8894 35.9588 77.8963 35.2049 77.8632 34.4521V32.196H77.8735Z" fill="#495057"/>
<path d="M135.474 11.587C135.474 13.0455 135.474 14.5066 135.474 15.9676C135.474 16.9805 134.959 17.5046 133.928 17.5401C132.898 17.5755 131.971 17.2514 131.948 16.0891C131.884 13.0506 131.884 10.0044 131.948 6.9507C131.973 5.79099 132.867 5.46687 133.934 5.50232C135 5.53777 135.479 6.06952 135.479 7.07984C135.476 8.58139 135.474 10.0829 135.474 11.587Z" fill="#A5BFD2"/>
<path d="M103.594 11.511C103.594 13.0556 103.569 14.5977 103.594 16.1398C103.62 17.264 103.025 17.5628 101.99 17.5552C100.954 17.5476 100.225 17.4134 100.238 16.16C100.273 13.0759 100.273 9.99007 100.238 6.90256C100.238 5.66182 100.934 5.48711 101.972 5.48458C103.01 5.48204 103.618 5.73779 103.592 6.88231C103.571 8.42437 103.594 9.96897 103.594 11.511Z" fill="#A8C1D3"/>
<path d="M135.739 2.01307C135.719 2.89931 134.503 4.01091 133.606 3.96027C132.71 3.90963 131.636 2.7803 131.657 1.93457C131.68 1.00781 132.839 -0.0303603 133.82 -0.005039C134.665 0.0228144 135.76 1.16987 135.739 2.01307Z" fill="#ACC3D4"/>
<path d="M163.232 5.67195C162.557 5.37316 161.813 5.31745 161.192 5.86692C160.626 6.37335 160.103 6.29738 159.446 5.97074C158.042 5.26681 156.569 5.18831 155.152 5.94795C153.262 6.9608 152.061 8.32815 151.842 10.6273C151.623 12.9265 152.463 14.6255 154.271 15.8688C155.891 16.988 157.71 17.3147 159.557 16.2588C160.185 15.8992 160.407 16.1398 160.44 16.7652C160.479 17.459 160.365 18.0515 159.791 18.5706C158.426 19.8139 156.314 19.6468 155.067 18.1376C154.513 17.4666 152.994 17.3045 152.321 17.8844C151.515 18.5909 152.064 19.2492 152.494 19.8645C153.635 21.4446 155.299 22.1814 157.187 22.2574C160.278 22.3815 162.596 21.4066 163.585 17.9907C164.211 15.8055 163.92 13.5899 164.013 11.6807C164.013 10.05 163.984 8.70797 164.013 7.37607C164.043 6.65695 163.94 5.98593 163.232 5.67195ZM157.978 14.0457C156.061 14.0457 155.021 13.0582 155.026 11.2274C155.026 9.52332 156.226 8.32815 157.947 8.3003C159.526 8.27498 160.677 9.54864 160.651 11.2983C160.628 12.8455 159.464 14.0406 157.978 14.0457Z" fill="#A5BFD1"/>
<path d="M88.166 5.98086C86.5768 5.07943 84.9593 5.16805 83.3134 5.8188C82.6077 6.09987 82.0513 6.19609 82.1698 5.08702C82.2553 4.0046 82.2828 2.9185 82.2522 1.83324C82.2522 0.410183 82.0281 0.212676 80.4982 0.210144C78.9141 0.210144 78.6952 0.387394 78.6952 1.77753C78.6952 4.03619 78.6952 6.29485 78.6952 8.5535C78.6952 10.7286 78.6952 12.9037 78.6952 15.0788C78.6952 17.4539 79.8568 18.1503 82.0642 17.0842C82.4351 16.907 82.7004 16.7728 83.1151 16.9981C85.4126 18.2389 87.3959 17.93 89.2324 16.1676C90.2626 15.1725 90.6361 13.8887 90.9297 12.5973C91.5015 10.0601 90.2549 7.17096 88.166 5.98086ZM86.6206 14.1875C85.5903 15.0687 84.2381 15.1446 83.1769 14.2812C81.7422 13.1164 81.7345 9.9563 83.1512 8.77126C84.1042 7.97364 85.1396 7.91287 86.2137 8.44715C87.5015 9.08525 87.6406 10.3057 87.7385 11.506C87.7719 12.5644 87.4783 13.4582 86.6335 14.1875H86.6206Z" fill="#A4BED1"/>
<path d="M62.2725 23.4475C61.3169 22.0143 59.9544 21.0622 58.1514 21.0597C56.1862 21.0597 54.2158 21.0597 52.2479 21.0774C51.7946 21.0774 51.2923 20.9457 50.9369 21.3838C50.9369 26.9376 50.9412 32.4905 50.9498 38.0426C51.3748 38.6833 52.0393 38.3794 52.5905 38.3921C54.1024 38.425 54.5223 38.0249 54.6124 36.6044C54.6536 35.9359 54.6124 35.2649 54.6304 34.5964C54.7026 31.8795 54.1153 32.0491 57.2886 32.1605C59.6582 32.2441 61.3633 31.2793 62.4966 29.3752C63.666 27.4178 63.5423 25.3592 62.2725 23.4475ZM56.2789 29.0308C54.1797 29.0308 54.1797 29.0308 54.1771 26.5569C54.1771 24.1615 54.1771 24.1615 56.3665 24.1666C58.4708 24.1666 59.5449 24.9769 59.5629 26.5696C59.5809 28.1623 58.4399 29.0409 56.2789 29.0308Z" fill="#495057"/>
<path d="M59.1071 0.878666C56.7245 0.32413 54.3472 0.546955 51.9647 0.488716C51.1636 0.470991 50.8829 0.929306 50.8932 1.70667C50.9292 4.13498 50.906 6.56076 50.906 8.98907C50.906 11.3743 50.9498 13.7596 50.8855 16.1423C50.8571 17.2033 51.2924 17.5325 52.3098 17.5552C53.3787 17.578 54.2132 17.4413 54.2261 16.1575C54.2261 15.0282 54.2261 13.8989 54.2261 12.7695C54.2261 11.2908 54.5172 11.2047 56.0626 11.1996C59.344 11.1844 62.3962 10.3539 62.7594 6.26956C62.9809 3.8767 61.6647 1.47118 59.1071 0.878666ZM56.2558 8.49024C54.2673 8.49024 54.0046 8.13827 54.0123 5.52005C54.0123 3.68679 54.4476 3.24114 56.1991 3.24114C58.3369 3.24114 59.5011 4.15777 59.514 5.8391C59.5269 7.52043 58.3163 8.49783 56.2558 8.49024Z" fill="#A3BED1"/>
<path d="M103.607 2.02065C103.584 2.81068 102.616 3.73997 101.864 3.69186C101.112 3.64375 100.233 2.69421 100.262 1.88393C100.298 0.896396 101.011 0.212721 101.964 0.253235C102.77 0.291217 103.631 1.21037 103.607 2.02065Z" fill="#A3BED1"/>
<path d="M191.773 30.8059C191.341 28.6004 190.202 27.0381 187.871 26.3569C185.921 25.7872 184.242 26.2531 182.746 27.3875C180.943 28.7472 180.322 30.659 180.479 32.8392C180.533 33.932 180.906 34.9866 181.552 35.8776C182.198 36.7686 183.09 37.4585 184.124 37.8654C186.758 38.9365 189.401 38.0401 190.759 36.412C191.274 35.779 191.405 35.1991 190.738 34.68C190.153 34.2217 189.527 33.9508 188.829 34.68C187.16 36.3943 185.502 36.3132 183.961 34.5509C183.619 34.1609 183.467 33.7583 183.624 33.2848C183.807 32.7404 184.322 32.8949 184.724 32.8923C186.65 32.8771 188.587 32.8923 190.506 32.8923C191.068 32.8923 191.637 32.9303 191.995 32.3859C191.995 32.1327 191.995 31.9023 191.995 31.6617C191.804 31.3908 191.83 31.092 191.773 30.8059ZM188.167 30.2994C188.059 30.74 187.652 30.6387 187.323 30.6489C186.9 30.6641 186.475 30.6489 186.05 30.6489C185.754 30.6489 185.455 30.6717 185.162 30.6489C184.806 30.616 184.319 30.8388 184.147 30.3805C183.974 29.9221 184.404 29.5955 184.737 29.3803C185.656 28.77 186.666 28.8485 187.632 29.2638C187.832 29.3434 187.996 29.491 188.095 29.6796C188.194 29.8683 188.22 30.0855 188.17 30.2918L188.167 30.2994Z" fill="#495057"/>
<path d="M71.048 26.6455C69.7833 26.2225 68.4037 26.2775 67.178 26.7999C65.9524 27.3223 64.9685 28.2747 64.4182 29.4714C63.1303 32.2567 63.903 35.4422 66.0641 36.9285C67.8026 38.1237 69.5979 38.23 71.6224 37.7312C72.9489 37.4071 73.5052 36.379 74.3732 35.6295C74.5458 35.4827 74.4608 35.2598 74.3089 35.0725C74.1877 34.9009 74.0295 34.7578 73.8454 34.6534C73.6614 34.549 73.4562 34.486 73.2444 34.4688C73.0327 34.4516 72.8197 34.4807 72.6208 34.554C72.4218 34.6273 72.2419 34.743 72.0937 34.8927C70.0332 36.7563 68.1864 36.531 66.7466 34.2445C66.1233 33.2544 66.4143 32.6796 67.6146 32.629C68.6449 32.5859 69.6752 32.629 70.7054 32.629H73.7963C74.3114 32.629 74.7364 32.5606 74.8085 31.9352C75.0584 29.6081 73.4511 27.4128 71.048 26.6455ZM71.71 30.5906C71.4962 31.173 70.9656 31.0261 70.5045 31.0033L69.7318 30.9578C68.9359 30.9578 68.5084 30.9578 68.0808 30.9578C67.7022 30.9578 67.2669 31.0261 67.0634 30.6083C66.8599 30.1905 67.1098 29.8082 67.3957 29.4815C68.2328 28.5193 70.3011 28.4028 71.2592 29.2612C71.6301 29.6233 71.8928 30.0538 71.71 30.5906Z" fill="#495057"/>
<path d="M150.153 29.7854C150.184 29.0587 149.841 28.57 149.442 27.9926C148.048 25.9847 143.518 26.3189 142.093 27.5824C141.726 27.8726 141.436 28.2451 141.246 28.6687C140.939 29.4537 141.622 29.5676 142.08 29.8183C142.539 30.069 142.874 30.1779 143.214 29.5651C144.059 28.0306 145.676 27.6761 147.077 28.6358C147.657 29.0308 147.966 29.5701 147.734 30.2513C147.525 30.8666 147.157 31.4287 146.372 31.3629C144.996 31.2439 143.77 31.7554 142.508 32.1225C140.911 32.5834 140.035 34.9788 140.932 36.3411C142.163 38.2072 144.538 38.62 146.423 37.5084C147.196 37.0602 147.595 36.8576 148.393 37.4704C149.321 38.1819 150.14 37.635 150.148 36.4575C150.148 35.3687 150.148 34.2799 150.148 33.1911C150.142 32.0466 150.106 30.9147 150.153 29.7854ZM146.624 35.5156C146.166 35.8521 145.622 36.0573 145.053 36.1081C144.339 36.0144 143.626 35.8118 143.466 34.9712C143.306 34.1305 143.796 33.6291 144.548 33.3506C144.873 33.2469 145.206 33.1723 145.545 33.1278C146.181 33.0164 146.985 32.4973 147.376 33.3152C147.768 34.133 147.335 34.9281 146.624 35.5156Z" fill="#495057"/>
<path d="M106.997 31.3072C106.644 27.0304 102.021 25.3542 98.5178 27.0026C96.4392 27.9825 95.1076 30.7805 95.427 32.8822C95.8751 35.7891 97.8713 37.868 100.529 38.1541H102.332C102.873 37.8046 103.553 37.8756 104.12 37.5236C106.482 36.055 107.211 34.0014 106.997 31.3072ZM101.233 35.6296C99.5249 35.6042 98.4946 34.4395 98.4122 32.4391C98.3221 30.2817 99.4116 28.8941 101.23 28.8764C103.154 28.8485 104.22 30.0513 104.22 32.2517C104.22 34.4521 103.146 35.6574 101.222 35.6296H101.233Z" fill="#495057"/>
</g>
<defs>
<clipPath id="clip0_728_923">
<rect width="192" height="40" fill="white"/>
</clipPath>
</defs>
</svg>
