<svg width="193" height="41" viewBox="0 0 193 41" fill="none" xmlns="http://www.w3.org/2000/svg">
<g clip-path="url(#clip0_211_1429)">
<path d="M0.511719 1.81648C5.64765 4.38406 10.7758 6.96429 15.9221 9.51161C17.6389 10.3708 19.1765 11.5389 20.4553 12.9553C20.7309 13.2541 21.107 13.5605 20.7541 14.0391C19.917 15.1684 19.5718 16.5256 18.9176 17.898C17.483 15.1456 15.1417 13.5757 12.4784 12.3273C10.9871 11.6361 9.51891 10.8992 8.05334 10.1548L5.864 9.04317C5.38235 8.78996 4.56328 8.22276 4.6148 9.2508C4.65601 10.0434 4.66373 10.8283 4.66116 11.6234C4.66116 12.9739 4.66116 14.3193 4.66116 15.6596C4.66116 18.3504 4.66116 21.0429 4.66116 23.7371V25.7628C4.66116 26.8744 5.07069 27.8898 6.09324 28.4114C7.69533 29.2318 9.30085 30.0455 10.9098 30.8524C12.5187 31.6593 14.1328 32.467 15.7521 33.2756L17.8127 34.3062C18.1733 34.486 18.5287 34.681 18.8867 34.8658C19.0619 34.957 19.237 35.0481 19.4173 35.1317C19.5976 35.2152 19.917 35.4786 20.0174 35.1722C20.0968 34.8112 20.1133 34.4396 20.0664 34.0732C20.0664 33.7137 20.0664 33.3566 20.0664 32.9971C20.0664 32.1007 20.0664 31.2069 20.0664 30.3105C20.0664 28.5178 20.0664 26.7275 20.0664 24.9373C20.0664 24.1389 20.075 23.3412 20.0921 22.5445C20.1797 17.3688 22.3459 13.0566 26.8636 10.4282C32.2443 7.296 37.952 4.70057 43.7319 1.76584V3.15091C43.7319 10.5599 43.7319 17.9698 43.7319 25.3805C43.7319 28.619 42.323 30.9714 39.3377 32.44C35.0312 34.5594 30.7478 36.7219 26.2455 38.9678C26.2455 37.4916 26.2635 36.1825 26.2455 34.8734C26.2455 34.2353 26.7606 34.1669 27.1495 33.9694C30.6834 32.1919 34.2207 30.4236 37.7614 28.6646C38.905 28.1 39.5902 27.2011 39.5979 25.9983C39.6442 20.225 39.6185 14.4518 39.6185 8.68867C39.1291 8.51396 38.8458 8.83553 38.5161 8.99506C35.7704 10.3523 33.0196 11.6994 30.3022 13.1072C26.2764 15.1937 24.2081 18.4728 24.2004 22.9496C24.2004 28.3076 24.2004 33.6656 24.2004 39.0261C24.2004 40.3048 22.6395 41.262 21.4573 40.6745C15.7083 37.8048 9.96623 34.9299 4.23102 32.0501C1.74548 30.7992 0.519433 28.0291 0.56322 25.3881C0.56322 24.8031 0.56322 24.2131 0.56322 23.6156V4.23972C0.511706 3.97638 0.676563 1.90004 0.511719 1.81648Z" fill="#E36928"/>
<path d="M120.129 33.0452C120.129 31.7049 120.129 30.3654 120.129 29.0267C120.129 27.3732 121.486 26.4946 122.874 27.4315C123.575 27.9025 123.954 27.7733 124.538 27.4517C126.383 26.4389 128.144 26.53 129.726 27.9708C130.3 28.4975 130.656 28.2392 131.14 27.8518C133.082 26.2895 135.843 26.444 137.352 28.2367C138.082 29.124 138.475 30.233 138.465 31.374C138.491 33.4655 138.429 35.5596 138.493 37.6511C138.537 39.0286 137.631 38.9172 136.69 38.9603C135.66 39.0109 135.209 38.626 135.24 37.5777C135.294 35.7799 135.271 33.9796 135.261 32.1792C135.261 30.7207 134.347 29.7079 133.113 29.7332C131.977 29.7585 131.052 30.8195 131.034 32.1488C131.021 33.9922 130.998 35.8331 131.055 37.6739C131.099 39.0539 130.179 38.94 129.252 38.9603C128.325 38.9805 127.665 38.9096 127.706 37.722C127.779 35.8002 127.74 33.8732 127.727 31.9463C127.727 30.7157 126.88 29.7813 125.785 29.7281C124.598 29.6724 123.624 30.5587 123.59 31.8627C123.542 33.7441 123.531 35.6305 123.59 37.5119C123.639 38.7602 122.985 38.9881 121.919 38.9603C120.922 38.9349 120.005 38.9982 120.085 37.5651C120.201 36.0838 120.129 34.5645 120.129 33.0452Z" fill="white"/>
<path d="M118.514 9.65848C118.514 7.2327 118.558 4.80692 118.494 2.38368C118.463 1.29739 118.919 1.00113 119.939 1.04418C120.959 1.08723 121.899 1.01379 121.845 2.41153C121.796 3.61935 121.814 4.83224 121.734 6.03753C121.68 6.8149 121.991 6.94657 122.635 6.68069C126.499 5.05254 129.59 7.57453 129.332 11.1955C129.209 13.0287 129.273 14.8772 129.332 16.7155C129.366 17.8499 129.023 18.4627 127.738 18.3968C126.453 18.331 126.004 17.9461 125.997 16.6244C125.997 14.8265 125.997 13.0287 125.997 11.2309C125.997 9.90156 125.093 8.93175 123.879 8.90137C122.903 8.87858 121.873 10.0434 121.857 11.2588C121.834 13.0591 121.857 14.8569 121.857 16.6547C121.857 17.9461 121.381 18.3361 120.085 18.3994C118.79 18.4627 118.499 17.7942 118.522 16.6877C118.545 14.3454 118.514 12.0007 118.514 9.65848Z" fill="#A2BDD0"/>
<path d="M139.094 12.2818C139.094 10.9423 139.094 9.60277 139.094 8.26327C139.094 6.4452 139.743 5.94637 141.476 6.52117C141.875 6.68245 142.303 6.76268 142.734 6.75702C143.165 6.75137 143.591 6.65993 143.985 6.48825C146.525 5.52351 149.08 6.44267 149.822 9.40019C150.445 11.9019 150.12 14.4822 150.079 17.0244C150.056 18.1943 149.049 18.45 148.019 18.3867C147.037 18.3285 146.558 17.7942 146.556 16.8446C146.556 14.9607 146.556 13.0768 146.556 11.1929C146.556 9.67367 146.04 9.10394 144.678 9.09634C143.254 9.09634 142.47 9.81293 142.45 11.2385C142.422 13.1199 142.414 15.0063 142.45 16.8877C142.473 17.9461 142.053 18.3867 140.943 18.407C139.833 18.4272 139.101 18.1538 139.104 16.9206C139.101 15.3743 139.097 13.828 139.094 12.2818Z" fill="#A7C0D2"/>
<path d="M154.555 33.1085C154.555 31.758 154.555 30.4177 154.555 29.0875C154.555 27.2719 155.843 26.5427 157.486 27.5226C158.037 27.8493 158.331 27.8037 158.833 27.5074C162.045 25.6134 165.272 27.7455 165.463 31.336C165.576 33.4655 165.463 35.6077 165.501 37.7423C165.527 39.0463 164.641 38.9602 163.76 38.9628C162.879 38.9653 161.983 39.0286 162.001 37.7474C162.029 35.904 162.024 34.0606 162.001 32.2197C162.001 30.5029 161.36 29.7281 160.013 29.7382C158.665 29.7484 157.864 30.665 157.859 32.2704C157.859 34.0732 157.803 35.8761 157.888 37.6714C157.944 38.9374 157.246 38.9932 156.275 38.9805C155.304 38.9678 154.472 38.9628 154.524 37.6309C154.604 36.1243 154.552 34.6151 154.555 33.1085Z" fill="white"/>
<path d="M76.0973 12.4818C76.0973 13.8618 76.0973 15.2418 76.0973 16.6244C76.0973 17.1991 76.2724 17.9639 75.5976 18.1791C74.9228 18.3943 74.0033 18.5918 73.3361 18.0601C72.7901 17.6245 72.4578 17.7309 71.8835 18.0272C69.3232 19.3413 65.555 18.2019 65.2356 14.6949C65.0295 12.4337 65.13 10.1877 65.0733 7.93663C65.045 6.77945 65.5885 6.39456 66.8763 6.34645C68.0895 6.29834 68.4397 6.87314 68.4217 7.95689C68.3754 9.75723 68.3985 11.555 68.4217 13.3554C68.4217 14.6442 69.2717 15.4748 70.5518 15.5001C71.8319 15.5254 72.7875 14.6569 72.8004 13.3301C72.8159 11.5728 72.8004 9.81547 72.8004 8.05817C72.8004 6.79211 73.2949 6.39456 74.6034 6.34645C75.8191 6.30087 76.1668 6.88327 76.1308 7.96448C76.0612 9.46857 76.0973 10.9752 76.0973 12.4818Z" fill="#A2BDD0"/>
<path d="M173.961 39.5097C171.262 39.1983 169.109 38.031 168.122 35.4355C167.249 33.1288 167.53 30.86 169.24 28.9735C171.02 27.0086 173.243 26.4566 175.865 27.239C176.54 27.4272 177.168 27.7488 177.712 28.1842C178.256 28.6196 178.704 29.1596 179.028 29.7712C179.445 30.5156 179.316 30.9435 178.381 31.2423C177.328 31.5791 176.612 31.7108 175.805 30.6397C174.863 29.3736 173.472 29.404 172.2 30.3865C171.107 31.2297 170.597 33.0984 171.1 34.3948C171.352 35.0412 171.807 35.5914 172.4 35.9654C172.993 36.3394 173.691 36.5174 174.394 36.4737C175.283 36.4408 175.777 35.9014 176.269 35.314C176.761 34.7265 178.33 34.648 178.956 35.2684C179.661 35.9622 179.151 36.58 178.659 37.1194C177.415 38.4893 176.022 39.6135 173.961 39.5097Z" fill="white"/>
<path d="M88.7499 34.448C88.7499 33.6124 88.7499 32.7743 88.7499 31.9387C88.7499 30.9537 88.992 29.913 87.3744 29.8016C86.6481 29.7458 86.9289 28.8393 86.8954 28.2823C86.867 27.7986 86.9495 27.2694 87.5779 27.2694C88.7061 27.2694 88.7087 26.5706 88.7731 25.7502C88.9791 23.1927 90.8027 21.5038 93.2728 21.5139C94.2258 21.5139 94.8028 21.8887 94.8337 22.9218C94.8594 23.8105 94.8156 24.4689 93.5973 24.4714C92.5258 24.4714 92.2142 25.2564 92.209 26.211C92.2039 27.1656 92.8118 27.2897 93.5742 27.2238C94.5452 27.1504 94.8311 27.6492 94.8414 28.5203C94.8414 29.4547 94.54 29.9889 93.5072 29.875C92.4743 29.761 92.1858 30.3029 92.2013 31.2221C92.2374 33.2731 92.2168 35.3241 92.2168 37.3726C92.2168 38.8311 92.1009 38.9324 90.455 38.9324C88.8787 38.9324 88.7447 38.8033 88.7447 37.3068V34.4201L88.7499 34.448Z" fill="white"/>
<path d="M107.978 14.6316C108.611 14.5278 109.09 14.7709 109.489 15.3001C109.651 15.5486 109.872 15.7548 110.132 15.9008C110.393 16.0469 110.686 16.1283 110.986 16.1382C111.715 16.1382 112.48 16.0977 112.555 15.2393C112.629 14.3809 112.014 14.0036 111.197 13.8795C109.969 13.6922 108.748 13.3959 107.813 12.5654C105.451 10.4688 106.393 7.64038 109.188 6.46801C111.174 5.63494 113.309 6.07806 114.932 7.73407C115.447 8.2405 115.759 8.87606 115.189 9.36729C114.62 9.85852 113.827 10.5194 112.925 9.75724C112.634 9.50402 112.385 9.2179 112.099 8.96721C111.852 8.72933 111.527 8.58549 111.182 8.56137C110.837 8.53725 110.495 8.63443 110.216 8.83555C109.876 9.04571 109.42 9.35716 109.592 9.83067C109.85 10.5143 110.394 10.7802 111.166 10.879C113.072 11.1195 114.772 11.6563 115.625 13.6643C116.501 15.7432 114.927 17.5562 113.327 18.2221C111.285 19.0577 108.518 18.7463 106.95 16.7332C106.612 16.3002 106.262 15.8293 106.54 15.2444C106.818 14.6594 107.365 14.5961 107.978 14.6316Z" fill="#A9C2D3"/>
<path d="M95.8538 1.05939C97.5717 1.05939 97.6104 1.19866 97.4945 2.97621C97.3786 4.75376 97.4172 6.49333 97.4636 8.25062C97.5331 10.9625 97.2601 13.682 97.6464 16.3939C97.819 17.6094 97.0154 18.3766 95.7842 18.3817C94.6612 18.3817 94.1074 17.7815 94.1074 16.513C94.1074 11.9062 94.1074 7.30024 94.1074 2.69515C94.1151 1.26196 94.3289 1.06445 95.8538 1.05939Z" fill="#A4BED1"/>
<path d="M110.599 33.0174C110.599 31.6787 110.599 30.3401 110.599 29.0014C110.599 27.3656 112.013 26.4921 113.363 27.4619C114.136 28.0164 114.586 27.9556 115.22 27.4796C115.372 27.4014 115.538 27.3516 115.709 27.3327C116.379 27.1707 117.131 26.5731 117.695 27.3555C118.259 28.1379 118.017 29.0571 117.814 29.8876C117.685 30.4219 117.09 30.3586 116.619 30.3941C114.916 30.5181 113.976 31.4424 113.927 33.1212C113.883 34.6658 113.87 36.2154 113.927 37.76C113.968 38.8488 113.381 39.0261 112.482 38.9577C111.583 38.8894 110.566 39.2109 110.586 37.7752C110.599 36.1952 110.599 34.605 110.599 33.0174Z" fill="white"/>
<path d="M78.3856 33.0452C78.3856 31.6221 78.3702 30.1991 78.3856 28.7786C78.3856 28.2316 78.128 27.4239 78.9523 27.3175C79.7765 27.2112 80.7553 26.8491 81.3554 27.6239C81.8319 28.2291 82.0714 28.2772 82.6149 27.753C83.1584 27.2289 83.9285 27.1934 84.6291 27.0289C85.0592 26.925 85.3657 27.1555 85.5873 27.5024C85.7648 27.7721 85.8693 28.082 85.8909 28.4025C85.9124 28.7231 85.8504 29.0438 85.7105 29.3342C85.5707 29.6246 85.3578 29.8751 85.0919 30.0619C84.826 30.2487 84.516 30.3656 84.1912 30.4016C82.6896 30.551 81.7623 31.5639 81.7083 33.23C81.6593 34.6506 81.6284 36.0761 81.7083 37.4941C81.7907 38.8235 81.0746 38.978 79.9671 38.9881C78.8595 38.9982 78.2156 38.8235 78.3547 37.56C78.4015 36.8079 78.4084 36.054 78.3753 35.3013V33.0452H78.3856Z" fill="white"/>
<path d="M135.986 12.4362C135.986 13.8947 135.986 15.3558 135.986 16.8168C135.986 17.8297 135.471 18.3538 134.44 18.3893C133.41 18.4247 132.483 18.1006 132.46 16.9384C132.396 13.8998 132.396 10.8537 132.46 7.79991C132.486 6.6402 133.379 6.31609 134.446 6.35154C135.512 6.38699 135.991 6.91873 135.991 7.92905C135.988 9.4306 135.986 10.9322 135.986 12.4362Z" fill="#A5BFD2"/>
<path d="M104.106 12.3602C104.106 13.9048 104.081 15.4469 104.106 16.989C104.132 18.1132 103.537 18.412 102.502 18.4044C101.466 18.3968 100.737 18.2626 100.75 17.0092C100.785 13.9251 100.785 10.8393 100.75 7.75177C100.75 6.51103 101.446 6.33632 102.484 6.33379C103.522 6.33126 104.129 6.587 104.104 7.73152C104.083 9.27359 104.106 10.8182 104.106 12.3602Z" fill="#A8C1D3"/>
<path d="M136.251 2.86225C136.23 3.74849 135.014 4.8601 134.118 4.80945C133.222 4.75881 132.148 3.62948 132.168 2.78375C132.191 1.85699 133.351 0.818822 134.332 0.844143C135.177 0.871997 136.271 2.01905 136.251 2.86225Z" fill="#ACC3D4"/>
<path d="M163.744 6.52116C163.069 6.22237 162.325 6.16666 161.704 6.71613C161.138 7.22256 160.615 7.1466 159.958 6.81995C158.554 6.11602 157.081 6.03753 155.664 6.79716C153.774 7.81001 152.573 9.17737 152.354 11.4765C152.135 13.7757 152.975 15.4748 154.783 16.718C156.403 17.8372 158.222 18.1639 160.069 17.108C160.697 16.7484 160.919 16.989 160.952 17.6144C160.991 18.3082 160.877 18.9007 160.303 19.4198C158.938 20.6631 156.826 20.496 155.579 18.9868C155.025 18.3158 153.506 18.1538 152.833 18.7336C152.027 19.4401 152.576 20.0984 153.006 20.7137C154.147 22.2938 155.811 23.0306 157.699 23.1066C160.79 23.2307 163.108 22.2558 164.097 18.84C164.723 16.6547 164.432 14.4391 164.525 12.5299C164.525 10.8992 164.496 9.55719 164.525 8.22529C164.555 7.50616 164.452 6.83515 163.744 6.52116ZM158.49 14.8949C156.573 14.8949 155.533 13.9074 155.538 12.0766C155.538 10.3725 156.738 9.17736 158.459 9.14951C160.038 9.12419 161.189 10.3978 161.163 12.1475C161.14 13.6947 159.976 14.8898 158.49 14.8949Z" fill="#A5BFD1"/>
<path d="M88.6779 6.83011C87.0887 5.92867 85.4711 6.01729 83.8253 6.66805C83.1195 6.94911 82.5632 7.04534 82.6816 5.93626C82.7671 4.85384 82.7946 3.76775 82.7641 2.68248C82.7641 1.25943 82.54 1.06192 81.01 1.05939C79.426 1.05939 79.207 1.23664 79.207 2.62677C79.207 4.88543 79.207 7.14409 79.207 9.40275C79.207 11.5778 79.207 13.7529 79.207 15.928C79.207 18.3032 80.3687 18.9995 82.576 17.9335C82.9469 17.7562 83.2122 17.622 83.6269 17.8474C85.9245 19.0881 87.9077 18.7792 89.7442 17.0169C90.7745 16.0217 91.148 14.7379 91.4416 13.4466C92.0134 10.9094 90.7668 8.0202 88.6779 6.83011ZM87.1324 15.0367C86.1022 15.9179 84.7499 15.9939 83.6887 15.1304C82.2541 13.9656 82.2464 10.8055 83.663 9.62051C84.616 8.82289 85.6514 8.76212 86.7255 9.29639C88.0133 9.93449 88.1524 11.155 88.2503 12.3552C88.2838 13.4136 87.9901 14.3075 87.1453 15.0367H87.1324Z" fill="#A4BED1"/>
<path d="M62.7849 24.2967C61.8293 22.8635 60.4667 21.9114 58.6637 21.9089C56.6985 21.9089 54.7281 21.9089 52.7603 21.9266C52.3069 21.9266 51.8047 21.795 51.4492 22.233C51.4492 27.7868 51.4535 33.3398 51.4621 38.8919C51.8871 39.5325 52.5516 39.2287 53.1028 39.2413C54.6148 39.2742 55.0346 38.8742 55.1247 37.4536C55.166 36.7852 55.1247 36.1142 55.1428 35.4457C55.2149 32.7287 54.6276 32.8983 57.8009 33.0098C60.1705 33.0933 61.8756 32.1286 63.0089 30.2244C64.1783 28.2671 64.0547 26.2085 62.7849 24.2967ZM56.7912 29.8801C54.692 29.8801 54.692 29.8801 54.6894 27.4062C54.6894 25.0108 54.6894 25.0108 56.8788 25.0158C58.9831 25.0158 60.0572 25.8261 60.0752 27.4188C60.0933 29.0115 58.9522 29.8902 56.7912 29.8801Z" fill="white"/>
<path d="M59.6174 1.72788C57.2349 1.17334 54.8576 1.39617 52.475 1.33793C51.674 1.3202 51.3932 1.77852 51.4035 2.55588C51.4396 4.98419 51.4164 7.40997 51.4164 9.83828C51.4164 12.2235 51.4602 14.6088 51.3958 16.9915C51.3675 18.0525 51.8028 18.3817 52.8202 18.4045C53.8891 18.4272 54.7236 18.2905 54.7365 17.0067C54.7365 15.8774 54.7365 14.7481 54.7365 13.6187C54.7365 12.14 55.0275 12.0539 56.573 12.0488C59.8544 12.0336 62.9066 11.2031 63.2698 7.11877C63.4913 4.72591 62.1751 2.3204 59.6174 1.72788ZM56.7661 9.33945C54.7777 9.33945 54.515 8.98748 54.5227 6.36926C54.5227 4.536 54.958 4.09035 56.7095 4.09035C58.8473 4.09035 60.0115 5.00698 60.0244 6.68831C60.0373 8.36964 58.8267 9.34705 56.7661 9.33945Z" fill="#A3BED1"/>
<path d="M104.12 2.86984C104.097 3.65986 103.128 4.58915 102.376 4.54104C101.624 4.49293 100.746 3.54339 100.774 2.73311C100.81 1.74558 101.524 1.0619 102.477 1.10242C103.283 1.1404 104.143 2.05956 104.12 2.86984Z" fill="#A3BED1"/>
<path d="M192.285 31.6551C191.852 29.4496 190.713 27.8873 188.382 27.2061C186.433 26.6364 184.753 27.1023 183.257 28.2367C181.454 29.5965 180.833 31.5082 180.99 33.6884C181.045 34.7813 181.417 35.8358 182.063 36.7268C182.709 37.6178 183.602 38.3077 184.635 38.7146C187.27 39.7857 189.912 38.8894 191.27 37.2612C191.785 36.6282 191.916 36.0483 191.249 35.5292C190.664 35.0709 190.039 34.8 189.341 35.5292C187.672 37.2435 186.013 37.1624 184.473 35.4001C184.13 35.0101 183.978 34.6075 184.135 34.134C184.318 33.5896 184.833 33.7441 185.235 33.7415C187.162 33.7263 189.098 33.7415 191.017 33.7415C191.579 33.7415 192.148 33.7795 192.506 33.2351C192.506 32.9819 192.506 32.7515 192.506 32.5109C192.316 32.24 192.341 31.9412 192.285 31.6551ZM188.679 31.1486C188.57 31.5892 188.163 31.488 187.834 31.4981C187.411 31.5133 186.986 31.4981 186.561 31.4981C186.265 31.4981 185.966 31.5209 185.673 31.4981C185.317 31.4652 184.831 31.688 184.658 31.2297C184.485 30.7714 184.916 30.4447 185.248 30.2295C186.167 29.6192 187.177 29.6977 188.143 30.113C188.343 30.1926 188.507 30.3402 188.606 30.5288C188.705 30.7175 188.732 30.9347 188.681 31.1411L188.679 31.1486Z" fill="white"/>
<path d="M71.5605 27.4948C70.2958 27.0717 68.9162 27.1267 67.6905 27.6491C66.4648 28.1716 65.481 29.1239 64.9306 30.3206C63.6428 33.106 64.4155 36.2914 66.5765 37.7777C68.3151 38.9729 70.1103 39.0792 72.1348 38.5804C73.4613 38.2563 74.0177 37.2283 74.8857 36.4787C75.0583 36.3319 74.9733 36.1091 74.8213 35.9217C74.7002 35.7501 74.5419 35.607 74.3579 35.5026C74.1739 35.3983 73.9686 35.3352 73.7569 35.318C73.5452 35.3009 73.3322 35.3299 73.1332 35.4032C72.9343 35.4765 72.7543 35.5922 72.6062 35.7419C70.5456 37.6055 68.6989 37.3802 67.2591 35.0937C66.6357 34.1036 66.9268 33.5288 68.1271 33.4782C69.1573 33.4351 70.1876 33.4782 71.2179 33.4782H74.3087C74.8239 33.4782 75.2489 33.4098 75.321 32.7844C75.5708 30.4574 73.9636 28.262 71.5605 27.4948ZM72.2224 31.4398C72.0086 32.0222 71.478 31.8753 71.017 31.8526L70.2443 31.807C69.4484 31.807 69.0208 31.807 68.5933 31.807C68.2146 31.807 67.7794 31.8753 67.5759 31.4575C67.3724 31.0397 67.6222 30.6574 67.9081 30.3307C68.7452 29.3685 70.8135 29.2521 71.7717 30.1105C72.1426 30.4725 72.4053 30.903 72.2224 31.4398Z" fill="white"/>
<path d="M150.664 30.6346C150.695 29.9079 150.353 29.4192 149.953 28.8419C148.56 26.8339 144.029 27.1681 142.605 28.4317C142.238 28.7218 141.947 29.0944 141.758 29.518C141.451 30.3029 142.134 30.4169 142.592 30.6675C143.051 30.9182 143.385 31.0271 143.725 30.4143C144.57 28.8799 146.188 28.5254 147.589 29.485C148.168 29.88 148.478 30.4194 148.246 31.1005C148.037 31.7158 147.669 32.278 146.883 32.2121C145.508 32.0931 144.282 32.6046 143.02 32.9718C141.423 33.4326 140.547 35.828 141.443 37.1903C142.674 39.0565 145.049 39.4692 146.935 38.3576C147.707 37.9094 148.107 37.7068 148.905 38.3196C149.832 39.0311 150.651 38.4842 150.659 37.3068C150.659 36.218 150.659 35.1291 150.659 34.0403C150.654 32.8958 150.618 31.764 150.664 30.6346ZM147.136 36.3648C146.678 36.7014 146.134 36.9065 145.564 36.9573C144.851 36.8637 144.137 36.6611 143.978 35.8204C143.818 34.9797 144.307 34.4784 145.06 34.1999C145.384 34.0961 145.718 34.0215 146.056 33.977C146.693 33.8656 147.496 33.3465 147.888 34.1644C148.279 34.9823 147.846 35.7774 147.136 36.3648Z" fill="white"/>
<path d="M107.508 32.1564C107.155 27.8797 102.532 26.2034 99.0286 27.8518C96.9501 28.8317 95.6184 31.6297 95.9378 33.7314C96.386 36.6383 98.3822 38.7172 101.04 39.0033H102.843C103.384 38.6539 104.064 38.7248 104.631 38.3728C106.993 36.9042 107.722 34.8506 107.508 32.1564ZM101.743 36.4788C100.036 36.4534 99.0055 35.2887 98.9231 33.2883C98.8329 31.1309 99.9224 29.7433 101.741 29.7256C103.665 29.6977 104.731 30.9005 104.731 33.1009C104.731 35.3013 103.657 36.5066 101.733 36.4788H101.743Z" fill="white"/>
</g>
<defs>
<clipPath id="clip0_211_1429">
<rect width="192" height="40" fill="white" transform="translate(0.511719 0.849213)"/>
</clipPath>
</defs>
</svg>
