<svg width="192" height="40" viewBox="0 0 192 40" fill="none" xmlns="http://www.w3.org/2000/svg">
<g clip-path="url(#clip0_243_707)">
<path d="M0 0.967272C5.13593 3.53485 10.2641 6.11508 15.4104 8.6624C17.1271 9.5216 18.6648 10.6897 19.9436 12.1061C20.2192 12.4049 20.5952 12.7113 20.2424 13.1898C19.4053 14.3192 19.0601 15.6764 18.4059 17.0488C16.9712 14.2964 14.6299 12.7265 11.9667 11.4781C10.4753 10.7869 9.00719 10.05 7.54163 9.30556L5.35228 8.19396C4.87063 7.94074 4.05157 7.37355 4.10308 8.40159C4.14429 9.19415 4.15202 9.9791 4.14944 10.7742C4.14944 12.1247 4.14944 13.4701 4.14944 14.8104C4.14944 17.5012 4.14944 20.1937 4.14944 22.8879V24.9136C4.14944 26.0252 4.55897 27.0406 5.58153 27.5622C7.18361 28.3826 8.78913 29.1963 10.3981 30.0032C12.007 30.8101 13.6211 31.6178 15.2404 32.4264L17.3009 33.457C17.6615 33.6368 18.017 33.8317 18.375 34.0166C18.5501 34.1077 18.7253 34.1989 18.9056 34.2825C19.0859 34.366 19.4053 34.6294 19.5057 34.323C19.5851 33.962 19.6016 33.5904 19.5547 33.224C19.5547 32.8645 19.5547 32.5074 19.5547 32.1479C19.5547 31.2515 19.5547 30.3577 19.5547 29.4613C19.5547 27.6685 19.5547 25.8783 19.5547 24.0881C19.5547 23.2897 19.5632 22.492 19.5804 21.6953C19.668 16.5196 21.8342 12.2074 26.3519 9.57903C31.7326 6.44679 37.4403 3.85136 43.2201 0.916626V2.3017C43.2201 9.7107 43.2201 17.1206 43.2201 24.5312C43.2201 27.7698 41.8112 30.1222 38.826 31.5908C34.5195 33.7102 30.2361 35.8726 25.7338 38.1186C25.7338 36.6424 25.7518 35.3333 25.7338 34.0242C25.7338 33.3861 26.2489 33.3177 26.6378 33.1202C30.1717 31.3427 33.709 29.5744 37.2497 27.8154C38.3933 27.2507 39.0784 26.3518 39.0862 25.1491C39.1325 19.3758 39.1068 13.6026 39.1068 7.83946C38.6174 7.66474 38.3341 7.98632 38.0044 8.14584C35.2587 9.50306 32.5078 10.8502 29.7905 12.258C25.7647 14.3445 23.6964 17.6236 23.6887 22.1004C23.6887 27.4584 23.6887 32.8164 23.6887 38.1769C23.6887 39.4556 22.1278 40.4127 20.9455 39.8253C15.1966 36.9555 9.45452 34.0807 3.7193 31.2009C1.23376 29.95 0.00771451 27.1798 0.0515013 24.5388C0.0515013 23.9539 0.0515013 23.3639 0.0515013 22.7663V3.39051C-1.25774e-05 3.12717 0.164844 1.05083 0 0.967272Z" fill="#E36928"/>
<path d="M119.617 32.196C119.617 30.8556 119.617 29.5161 119.617 28.1775C119.617 26.524 120.974 25.6454 122.363 26.5823C123.063 27.0532 123.442 26.9241 124.027 26.6025C125.871 25.5897 127.633 25.6808 129.214 27.1216C129.788 27.6483 130.144 27.39 130.628 27.0026C132.57 25.4403 135.331 25.5947 136.841 27.3875C137.57 28.2748 137.964 29.3838 137.953 30.5248C137.979 32.6163 137.917 34.7104 137.982 36.8019C138.026 38.1794 137.119 38.068 136.179 38.111C135.148 38.1617 134.698 37.7768 134.729 36.7285C134.783 34.9307 134.76 33.1303 134.749 31.33C134.749 29.8715 133.835 28.8586 132.601 28.884C131.465 28.9093 130.541 29.9702 130.522 31.2996C130.51 33.143 130.486 34.9839 130.543 36.8247C130.587 38.2047 129.667 38.0908 128.74 38.111C127.813 38.1313 127.154 38.0604 127.195 36.8728C127.267 34.9509 127.228 33.024 127.215 31.097C127.215 29.8664 126.368 28.9321 125.273 28.8789C124.086 28.8232 123.112 29.7094 123.079 31.0135C123.03 32.8948 123.019 34.7813 123.079 36.6627C123.128 37.911 122.473 38.1389 121.407 38.111C120.41 38.0857 119.493 38.149 119.573 36.7158C119.689 35.2345 119.617 33.7153 119.617 32.196Z" fill="#21527A"/>
<path d="M118.003 8.80927C118.003 6.38349 118.046 3.95771 117.982 1.53446C117.951 0.448181 118.407 0.15192 119.427 0.194966C120.447 0.238013 121.387 0.164579 121.333 1.56231C121.284 2.77014 121.302 3.98303 121.222 5.18832C121.168 5.96568 121.48 6.09736 122.124 5.83148C125.987 4.20332 129.078 6.72532 128.82 10.3463C128.697 12.1795 128.761 14.028 128.82 15.8663C128.854 17.0007 128.511 17.6135 127.226 17.5476C125.941 17.4818 125.493 17.0969 125.485 15.7751C125.485 13.9773 125.485 12.1795 125.485 10.3817C125.485 9.05235 124.581 8.08254 123.368 8.05215C122.392 8.02937 121.361 9.19414 121.346 10.4096C121.323 12.2099 121.346 14.0077 121.346 15.8055C121.346 17.0969 120.869 17.4869 119.574 17.5502C118.278 17.6135 117.987 16.945 118.01 15.8384C118.033 13.4962 118.003 11.1515 118.003 8.80927Z" fill="#A2BDD0"/>
<path d="M138.582 11.4325C138.582 10.093 138.582 8.75355 138.582 7.41406C138.582 5.59599 139.231 5.09716 140.965 5.67195C141.363 5.83324 141.791 5.91347 142.222 5.90781C142.653 5.90215 143.079 5.81072 143.473 5.63903C146.013 4.67429 148.568 5.59346 149.31 8.55098C149.933 11.0527 149.609 13.633 149.567 16.1752C149.544 17.3451 148.537 17.6008 147.507 17.5375C146.525 17.4793 146.046 16.945 146.044 15.9954C146.044 14.1115 146.044 12.2276 146.044 10.3437C146.044 8.82445 145.529 8.25473 144.166 8.24713C142.742 8.24713 141.959 8.96372 141.938 10.3893C141.91 12.2707 141.902 14.1571 141.938 16.0385C141.961 17.0969 141.542 17.5375 140.431 17.5578C139.321 17.578 138.59 17.3045 138.592 16.0714C138.589 14.5251 138.585 12.9788 138.582 11.4325Z" fill="#A7C0D2"/>
<path d="M154.043 32.2593C154.043 30.9088 154.043 29.5685 154.043 28.2383C154.043 26.4227 155.331 25.6935 156.974 26.6734C157.525 27.0001 157.819 26.9545 158.321 26.6582C161.533 24.7642 164.76 26.8962 164.951 30.4868C165.064 32.6163 164.951 34.7585 164.99 36.8931C165.015 38.1971 164.129 38.111 163.248 38.1136C162.368 38.1161 161.471 38.1794 161.489 36.8981C161.518 35.0548 161.512 33.2114 161.489 31.3705C161.489 29.6537 160.848 28.8789 159.501 28.889C158.154 28.8992 157.353 29.8158 157.348 31.4211C157.348 33.224 157.291 35.0269 157.376 36.8222C157.433 38.0882 156.735 38.1439 155.763 38.1313C154.792 38.1186 153.961 38.1136 154.012 36.7817C154.092 35.275 154.04 33.7659 154.043 32.2593Z" fill="#21527A"/>
<path d="M75.5856 11.6326C75.5856 13.0126 75.5856 14.3926 75.5856 15.7751C75.5856 16.3499 75.7607 17.1146 75.0859 17.3299C74.411 17.5451 73.4915 17.7426 72.8244 17.2109C72.2784 16.7753 71.9461 16.8817 71.3717 17.1779C68.8115 18.4921 65.0433 17.3527 64.7239 13.8457C64.5178 11.5845 64.6183 9.33847 64.5616 7.08741C64.5333 5.93023 65.0767 5.54535 66.3646 5.49724C67.5777 5.44913 67.928 6.02393 67.91 7.10768C67.8636 8.90802 67.8868 10.7058 67.91 12.5062C67.91 13.795 68.76 14.6256 70.0401 14.6509C71.3202 14.6762 72.2758 13.8077 72.2887 12.4808C72.3041 10.7236 72.2887 8.96625 72.2887 7.20896C72.2887 5.9429 72.7832 5.54535 74.0917 5.49724C75.3074 5.45166 75.6551 6.03405 75.6191 7.11527C75.5495 8.61935 75.5856 10.126 75.5856 11.6326Z" fill="#A2BDD0"/>
<path d="M173.45 38.6605C170.75 38.3491 168.597 37.1817 167.61 34.5863C166.737 32.2795 167.018 30.0108 168.728 28.1243C170.508 26.1594 172.731 25.6074 175.353 26.3898C176.028 26.578 176.656 26.8996 177.2 27.335C177.744 27.7704 178.192 28.3104 178.516 28.9219C178.933 29.6664 178.804 30.0943 177.869 30.3931C176.816 30.7299 176.1 30.8616 175.294 29.7905C174.351 28.5244 172.96 28.5548 171.688 29.5373C170.596 30.3805 170.086 32.2492 170.588 33.5456C170.84 34.192 171.296 34.7422 171.888 35.1162C172.481 35.4901 173.18 35.6682 173.882 35.6245C174.771 35.5916 175.265 35.0522 175.757 34.4648C176.249 33.8773 177.818 33.7988 178.444 34.4192C179.15 35.113 178.64 35.7308 178.148 36.2702C176.904 37.6401 175.51 38.7643 173.45 38.6605Z" fill="#21527A"/>
<path d="M88.2382 33.5988C88.2382 32.7632 88.2382 31.9251 88.2382 31.0895C88.2382 30.1045 88.4803 29.0638 86.8627 28.9523C86.1364 28.8966 86.4171 27.9901 86.3837 27.4331C86.3553 26.9494 86.4377 26.4202 87.0662 26.4202C88.1944 26.4202 88.197 25.7213 88.2613 24.9009C88.4674 22.3435 90.291 20.6546 92.7611 20.6647C93.7141 20.6647 94.2911 21.0394 94.322 22.0725C94.3477 22.9613 94.3039 23.6197 93.0856 23.6222C92.0141 23.6222 91.7025 24.4072 91.6973 25.3618C91.6922 26.3164 92.3 26.4405 93.0624 26.3746C94.0335 26.3012 94.3194 26.8 94.3297 27.6711C94.3297 28.6054 94.0283 29.1397 92.9955 29.0258C91.9626 28.9118 91.6741 29.4537 91.6896 30.3729C91.7256 32.4239 91.705 34.4749 91.705 36.5234C91.705 37.9819 91.5891 38.0832 89.9433 38.0832C88.367 38.0832 88.233 37.954 88.233 36.4576V33.5709L88.2382 33.5988Z" fill="#21527A"/>
<path d="M107.466 13.7824C108.099 13.6786 108.579 13.9216 108.978 14.4509C109.139 14.6994 109.36 14.9056 109.621 15.0516C109.881 15.1976 110.174 15.2791 110.474 15.289C111.203 15.289 111.968 15.2485 112.043 14.3901C112.118 13.5317 111.502 13.1544 110.685 13.0303C109.457 12.8429 108.236 12.5467 107.301 11.7162C104.939 9.61955 105.882 6.79117 108.676 5.61879C110.662 4.78573 112.797 5.22885 114.42 6.88486C114.935 7.39128 115.247 8.02684 114.678 8.51807C114.109 9.00931 113.315 9.67019 112.414 8.90802C112.123 8.65481 111.873 8.36868 111.587 8.118C111.34 7.88012 111.015 7.73628 110.67 7.71216C110.325 7.68804 109.983 7.78521 109.704 7.98633C109.364 8.1965 108.908 8.50795 109.081 8.98146C109.338 9.66513 109.882 9.931 110.655 10.0298C112.561 10.2703 114.261 10.8071 115.113 12.8151C115.989 14.894 114.415 16.707 112.816 17.3729C110.773 18.2085 108.007 17.8971 106.438 15.884C106.101 15.451 105.75 14.9801 106.029 14.3951C106.307 13.8102 106.853 13.7469 107.466 13.7824Z" fill="#A9C2D3"/>
<path d="M95.342 0.210175C97.06 0.210175 97.0987 0.349443 96.9827 2.127C96.8668 3.90455 96.9055 5.64412 96.9518 7.40141C97.0214 10.1133 96.7484 12.8328 97.1347 15.5447C97.3073 16.7602 96.5037 17.5274 95.2725 17.5325C94.1495 17.5325 93.5957 16.9323 93.5957 15.6637C93.5957 11.057 93.5957 6.45103 93.5957 1.84593C93.6034 0.41275 93.8172 0.215239 95.342 0.210175Z" fill="#A4BED1"/>
<path d="M110.087 32.1681C110.087 30.8295 110.087 29.4908 110.087 28.1522C110.087 26.5164 111.501 25.6429 112.851 26.6127C113.624 27.1672 114.075 27.1064 114.708 26.6304C114.861 26.5522 115.027 26.5024 115.198 26.4835C115.867 26.3215 116.619 25.7239 117.183 26.5063C117.748 27.2887 117.505 28.2079 117.302 29.0384C117.173 29.5727 116.578 29.5094 116.107 29.5449C114.404 29.6689 113.464 30.5932 113.415 32.272C113.371 33.8166 113.359 35.3662 113.415 36.9108C113.456 37.9996 112.869 38.1769 111.97 38.1085C111.071 38.0401 110.054 38.3617 110.075 36.926C110.087 35.346 110.087 33.7558 110.087 32.1681Z" fill="#21527A"/>
<path d="M77.8739 32.196C77.8739 30.7729 77.8584 29.3499 77.8739 27.9293C77.8739 27.3824 77.6163 26.5747 78.4405 26.4683C79.2648 26.362 80.2435 25.9999 80.8437 26.7747C81.3202 27.3799 81.5597 27.428 82.1032 26.9038C82.6466 26.3797 83.4168 26.3442 84.1174 26.1796C84.5475 26.0758 84.854 26.3062 85.0755 26.6531C85.2531 26.9229 85.3576 27.2327 85.3791 27.5533C85.4007 27.8739 85.3386 28.1946 85.1988 28.485C85.059 28.7754 84.8461 29.0259 84.5802 29.2127C84.3143 29.3995 84.0042 29.5164 83.6795 29.5524C82.1779 29.7018 81.2506 30.7147 81.1965 32.3808C81.1476 33.8013 81.1167 35.2269 81.1965 36.6449C81.279 37.9743 80.5629 38.1287 79.4554 38.1389C78.3478 38.149 77.7039 37.9743 77.843 36.7108C77.8898 35.9587 77.8967 35.2048 77.8636 34.4521V32.196H77.8739Z" fill="#21527A"/>
<path d="M135.474 11.587C135.474 13.0455 135.474 14.5066 135.474 15.9676C135.474 16.9805 134.959 17.5046 133.929 17.5401C132.898 17.5755 131.971 17.2514 131.948 16.0891C131.885 13.0506 131.885 10.0044 131.948 6.9507C131.974 5.79099 132.868 5.46687 133.934 5.50232C135 5.53777 135.479 6.06952 135.479 7.07984C135.477 8.58139 135.474 10.0829 135.474 11.587Z" fill="#A5BFD2"/>
<path d="M103.595 11.511C103.595 13.0556 103.569 14.5977 103.595 16.1398C103.62 17.264 103.025 17.5628 101.99 17.5552C100.955 17.5476 100.226 17.4134 100.238 16.16C100.273 13.0759 100.273 9.99007 100.238 6.90256C100.238 5.66182 100.934 5.48711 101.972 5.48458C103.01 5.48204 103.618 5.73779 103.592 6.88231C103.571 8.42437 103.595 9.96897 103.595 11.511Z" fill="#A8C1D3"/>
<path d="M135.739 2.01304C135.718 2.89928 134.503 4.01088 133.606 3.96024C132.71 3.9096 131.636 2.78027 131.657 1.93454C131.68 1.00778 132.839 -0.0303908 133.82 -0.00506951C134.665 0.0227839 135.76 1.16984 135.739 2.01304Z" fill="#ACC3D4"/>
<path d="M163.232 5.67195C162.558 5.37316 161.813 5.31745 161.192 5.86692C160.626 6.37335 160.103 6.29738 159.446 5.97074C158.042 5.26681 156.569 5.18831 155.152 5.94795C153.262 6.9608 152.062 8.32815 151.843 10.6273C151.624 12.9265 152.463 14.6255 154.272 15.8688C155.892 16.988 157.71 17.3147 159.557 16.2588C160.185 15.8992 160.407 16.1398 160.44 16.7652C160.479 17.459 160.366 18.0515 159.791 18.5706C158.426 19.8139 156.314 19.6468 155.067 18.1376C154.514 17.4666 152.994 17.3045 152.322 17.8844C151.516 18.5909 152.064 19.2492 152.494 19.8645C153.635 21.4446 155.299 22.1814 157.187 22.2574C160.278 22.3815 162.596 21.4066 163.585 17.9907C164.211 15.8055 163.92 13.5899 164.013 11.6807C164.013 10.05 163.984 8.70797 164.013 7.37607C164.044 6.65695 163.941 5.98593 163.232 5.67195ZM157.978 14.0457C156.062 14.0457 155.021 13.0582 155.026 11.2274C155.026 9.52332 156.227 8.32815 157.947 8.3003C159.526 8.27498 160.677 9.54864 160.652 11.2983C160.628 12.8455 159.464 14.0406 157.978 14.0457Z" fill="#A5BFD1"/>
<path d="M88.1661 5.98089C86.5769 5.07946 84.9594 5.16808 83.3135 5.81883C82.6078 6.0999 82.0514 6.19612 82.1699 5.08705C82.2554 4.00463 82.2829 2.91853 82.2523 1.83327C82.2523 0.410214 82.0283 0.212707 80.4983 0.210175C78.9142 0.210175 78.6953 0.387424 78.6953 1.77756C78.6953 4.03622 78.6953 6.29488 78.6953 8.55353C78.6953 10.7286 78.6953 12.9037 78.6953 15.0788C78.6953 17.454 79.857 18.1503 82.0643 17.0843C82.4352 16.907 82.7005 16.7728 83.1152 16.9982C85.4127 18.2389 87.396 17.93 89.2325 16.1676C90.2628 15.1725 90.6362 13.8887 90.9299 12.5973C91.5017 10.0601 90.255 7.17099 88.1661 5.98089ZM86.6207 14.1875C85.5905 15.0687 84.2382 15.1447 83.177 14.2812C81.7424 13.1164 81.7346 9.95633 83.1513 8.77129C84.1043 7.97367 85.1397 7.9129 86.2138 8.44718C87.5016 9.08528 87.6407 10.3058 87.7386 11.506C87.7721 12.5644 87.4784 13.4583 86.6336 14.1875H86.6207Z" fill="#A4BED1"/>
<path d="M62.2731 23.4475C61.3176 22.0143 59.955 21.0622 58.152 21.0597C56.1868 21.0597 54.2164 21.0597 52.2485 21.0774C51.7952 21.0774 51.2929 20.9458 50.9375 21.3838C50.9375 26.9376 50.9418 32.4906 50.9504 38.0427C51.3754 38.6833 52.0399 38.3794 52.5911 38.3921C54.103 38.425 54.5229 38.025 54.613 36.6044C54.6542 35.9359 54.613 35.2649 54.6311 34.5965C54.7032 31.8795 54.1159 32.0491 57.2892 32.1605C59.6588 32.2441 61.3639 31.2794 62.4972 29.3752C63.6666 27.4179 63.543 25.3593 62.2731 23.4475ZM56.2795 29.0308C54.1803 29.0308 54.1803 29.0308 54.1777 26.557C54.1777 24.1616 54.1777 24.1616 56.3671 24.1666C58.4714 24.1666 59.5455 24.9769 59.5635 26.5696C59.5815 28.1623 58.4405 29.041 56.2795 29.0308Z" fill="#21527A"/>
<path d="M59.1057 0.878666C56.7232 0.32413 54.3458 0.546955 51.9633 0.488716C51.1623 0.470991 50.8815 0.929306 50.8918 1.70667C50.9279 4.13498 50.9047 6.56076 50.9047 8.98907C50.9047 11.3743 50.9485 13.7596 50.8841 16.1423C50.8558 17.2033 51.2911 17.5325 52.3085 17.5552C53.3774 17.578 54.2119 17.4413 54.2248 16.1575C54.2248 15.0282 54.2248 13.8989 54.2248 12.7695C54.2248 11.2908 54.5158 11.2047 56.0612 11.1996C59.3427 11.1844 62.3949 10.3539 62.7581 6.26956C62.9796 3.8767 61.6634 1.47118 59.1057 0.878666ZM56.2544 8.49024C54.266 8.49024 54.0033 8.13827 54.011 5.52005C54.011 3.68679 54.4463 3.24114 56.1978 3.24114C58.3356 3.24114 59.4998 4.15777 59.5127 5.8391C59.5256 7.52043 58.315 8.49783 56.2544 8.49024Z" fill="#A3BED1"/>
<path d="M103.608 2.02062C103.585 2.81065 102.617 3.73994 101.864 3.69183C101.112 3.64372 100.234 2.69418 100.262 1.88389C100.298 0.896365 101.012 0.212691 101.965 0.253205C102.771 0.291186 103.631 1.21034 103.608 2.02062Z" fill="#A3BED1"/>
<path d="M191.773 30.8059C191.34 28.6004 190.202 27.0381 187.871 26.3569C185.921 25.7872 184.242 26.2531 182.745 27.3875C180.942 28.7472 180.321 30.659 180.478 32.8392C180.533 33.932 180.905 34.9866 181.551 35.8776C182.197 36.7686 183.09 37.4585 184.123 37.8654C186.758 38.9365 189.401 38.0401 190.758 36.412C191.273 35.779 191.405 35.1991 190.737 34.68C190.153 34.2217 189.527 33.9508 188.829 34.68C187.16 36.3943 185.501 36.3132 183.961 34.5509C183.618 34.1609 183.466 33.7583 183.623 33.2848C183.806 32.7404 184.321 32.8949 184.723 32.8923C186.65 32.8771 188.587 32.8923 190.506 32.8923C191.067 32.8923 191.636 32.9303 191.994 32.3859C191.994 32.1327 191.994 31.9023 191.994 31.6617C191.804 31.3908 191.83 31.092 191.773 30.8059ZM188.167 30.2994C188.059 30.74 187.652 30.6387 187.322 30.6489C186.9 30.6641 186.475 30.6489 186.05 30.6489C185.754 30.6489 185.455 30.6717 185.161 30.6489C184.806 30.616 184.319 30.8388 184.146 30.3805C183.974 29.9221 184.404 29.5955 184.736 29.3803C185.656 28.77 186.665 28.8485 187.631 29.2638C187.831 29.3434 187.996 29.491 188.094 29.6796C188.193 29.8683 188.22 30.0855 188.169 30.2918L188.167 30.2994Z" fill="#21527A"/>
<path d="M71.0487 26.6456C69.7841 26.2225 68.4044 26.2775 67.1788 26.7999C65.9531 27.3224 64.9692 28.2747 64.4189 29.4714C63.1311 32.2568 63.9038 35.4422 66.0648 36.9285C67.8034 38.1237 69.5986 38.23 71.6231 37.7312C72.9496 37.4071 73.506 36.3791 74.374 35.6295C74.5465 35.4827 74.4616 35.2599 74.3096 35.0725C74.1885 34.9009 74.0302 34.7578 73.8462 34.6534C73.6621 34.5491 73.4569 34.486 73.2452 34.4688C73.0334 34.4517 72.8205 34.4807 72.6215 34.554C72.4226 34.6273 72.2426 34.743 72.0945 34.8927C70.0339 36.7563 68.1871 36.531 66.7473 34.2445C66.124 33.2544 66.4151 32.6796 67.6153 32.629C68.6456 32.5859 69.6759 32.629 70.7062 32.629H73.797C74.3121 32.629 74.7372 32.5606 74.8093 31.9352C75.0591 29.6082 73.4519 27.4128 71.0487 26.6456ZM71.7107 30.5906C71.4969 31.173 70.9663 31.0261 70.5053 31.0034L69.7326 30.9578C68.9367 30.9578 68.5091 30.9578 68.0815 30.9578C67.7029 30.9578 67.2676 31.0261 67.0642 30.6083C66.8607 30.1905 67.1105 29.8082 67.3964 29.4815C68.2335 28.5193 70.3018 28.4029 71.26 29.2613C71.6309 29.6233 71.8936 30.0538 71.7107 30.5906Z" fill="#21527A"/>
<path d="M150.153 29.7854C150.183 29.0587 149.841 28.57 149.442 27.9927C148.048 25.9847 143.518 26.3189 142.093 27.5825C141.726 27.8726 141.436 28.2451 141.246 28.6687C140.939 29.4537 141.622 29.5676 142.08 29.8183C142.539 30.069 142.874 30.1779 143.214 29.5651C144.058 28.0306 145.676 27.6761 147.077 28.6358C147.657 29.0308 147.966 29.5702 147.734 30.2513C147.525 30.8666 147.157 31.4288 146.371 31.3629C144.996 31.2439 143.77 31.7554 142.508 32.1226C140.911 32.5834 140.035 34.9788 140.932 36.3411C142.163 38.2073 144.538 38.62 146.423 37.5084C147.196 37.0602 147.595 36.8576 148.393 37.4704C149.321 38.1819 150.14 37.635 150.147 36.4576C150.147 35.3687 150.147 34.2799 150.147 33.1911C150.142 32.0466 150.106 30.9147 150.153 29.7854ZM146.624 35.5156C146.166 35.8522 145.622 36.0573 145.053 36.1081C144.339 36.0144 143.626 35.8119 143.466 34.9712C143.306 34.1305 143.796 33.6292 144.548 33.3506C144.873 33.2469 145.206 33.1723 145.545 33.1278C146.181 33.0164 146.984 32.4973 147.376 33.3152C147.767 34.1331 147.335 34.9282 146.624 35.5156Z" fill="#21527A"/>
<path d="M106.996 31.3072C106.643 27.0304 102.02 25.3542 98.5169 27.0026C96.4383 27.9825 95.1067 30.7805 95.4261 32.8822C95.8743 35.7891 97.8704 37.868 100.529 38.1541H102.332C102.872 37.8046 103.552 37.8756 104.119 37.5236C106.481 36.055 107.21 34.0014 106.996 31.3072ZM101.232 35.6296C99.524 35.6042 98.4938 34.4395 98.4113 32.4391C98.3212 30.2817 99.4107 28.8941 101.229 28.8764C103.153 28.8485 104.22 30.0513 104.22 32.2517C104.22 34.4521 103.145 35.6574 101.221 35.6296H101.232Z" fill="#21527A"/>
</g>
<defs>
<clipPath id="clip0_243_707">
<rect width="192" height="40" fill="white"/>
</clipPath>
</defs>
</svg>
